# xmcd
# Copyright (C) 1995-1998 Ti Kan
#
# Track frame offsets:
#       150
#       13490
#       21678
#       38116
#       66589
#       83021
#       95454
#       110170
#       128448
#       149899
#       168504
#       180121
#       203603
#       217998
#       234469
#       254857
#
# Disc length: 3876 seconds
#
# Revision: 0
# Processed by: cddbd v1.5.2PL0 Copyright (c) Steve Scherf et al.
# Submitted via: CD-Import v1.0
#
DISCID=ee0f2210
DTITLE=Admiral James T. - War Is Over And I've Won
DYEAR=10
DGENRE=
TTITLE0=A Spot On The Floor
TTITLE1=Graveyard
TTITLE2=Too Lat
TTITLE3=Just Let 'em All Laugh
TTITLE4=Fire
TTITLE5=Best Friend
TTITLE6=I Know You Shouldn't Mix 'em (But I Will)
TTITLE7=Hammer It Down
TTITLE8=The Attic
TTITLE9=Walking 'round In Circles
TTITLE10=My Favourite Place
TTITLE11=Who's The One
TTITLE12=Guts Guts
TTITLE13=There's A Riot Going On
TTITLE14=Burning Low
TTITLE15=Tell Me I'm Dreamin'
EXTD=
EXTT0=
EXTT1=
EXTT2=
EXTT3=
EXTT4=
EXTT5=
EXTT6=
EXTT7=
EXTT8=
EXTT9=
EXTT10=
EXTT11=
EXTT12=
EXTT13=
EXTT14=
EXTT15=
PLAYORDER=
